<svg width="24" height="24" viewBox="0 0 24 24" fill="none" xmlns="http://www.w3.org/2000/svg">
<path d="M21.3122 9.95297L20.7853 8.63578L19.8511 6.3C19.0491 4.29516 17.1361 3 14.9766 3H9.02344C6.86437 3 4.95094 4.29516 4.14891 6.3L3.21469 8.63578L2.68781 9.95297C1.55719 10.3828 0.75 11.4684 0.75 12.75V15C0.75 15.7556 1.03875 16.4377 1.5 16.9655V19.5C1.5 20.3283 2.17172 21 3 21H4.5C5.32828 21 6 20.3283 6 19.5V18H18V19.5C18 20.3283 18.6717 21 19.5 21H21C21.8283 21 22.5 20.3283 22.5 19.5V16.9655C22.9613 16.4381 23.25 15.7561 23.25 15V12.75C23.25 11.4684 22.4428 10.3828 21.3122 9.95297ZM6.93422 7.41422C7.27594 6.56016 8.10328 6 9.02344 6H14.9766C15.8967 6 16.7241 6.56016 17.0658 7.41422L18 9.75H6L6.93422 7.41422ZM4.5 14.9906C3.6 14.9906 3 14.3925 3 13.4953C3 12.5981 3.6 12 4.5 12C5.4 12 6.75 13.3458 6.75 14.243C6.75 15.1402 5.4 14.9906 4.5 14.9906ZM19.5 14.9906C18.6 14.9906 17.25 15.1402 17.25 14.243C17.25 13.3458 18.6 12 19.5 12C20.4 12 21 12.5981 21 13.4953C21 14.3925 20.4 14.9906 19.5 14.9906Z" fill="#FFE681"/>
</svg>
