<svg width="24" height="24" viewBox="0 0 24 24" fill="none" xmlns="http://www.w3.org/2000/svg">
<g clip-path="url(#clip0_95_328)">
<path d="M23.4 19.2H0.599985C0.268485 19.2 -1.54721e-05 19.4685 -1.54721e-05 19.8V21C-1.54721e-05 21.3315 0.268485 21.6 0.599985 21.6H23.4C23.7315 21.6 24 21.3315 24 21V19.8C24 19.4685 23.7315 19.2 23.4 19.2ZM3.02061 15.1976C3.25611 15.4541 3.58686 15.5996 3.93298 15.5993L8.82823 15.5925C9.21456 15.592 9.59533 15.5005 9.93973 15.3255L20.8507 9.78863C21.8535 9.27975 22.7524 8.55338 23.364 7.602C24.0506 6.534 24.1252 5.76113 23.8541 5.21513C23.5837 4.66875 22.9264 4.2675 21.6697 4.18575C20.5504 4.113 19.437 4.40775 18.4342 4.91625L14.7401 6.79088L6.53886 3.71363C6.44025 3.6472 6.32569 3.60832 6.20702 3.601C6.08835 3.59368 5.96988 3.61819 5.86386 3.672L3.39823 4.92338C2.99811 5.12625 2.90136 5.66025 3.20436 5.99325L9.06261 9.672L5.19223 11.6363L2.47911 10.2686C2.38564 10.2215 2.28239 10.197 2.17771 10.1971C2.07303 10.1973 1.96984 10.222 1.87648 10.2694L0.37161 11.0333C-0.0198905 11.232 -0.123015 11.7503 0.162735 12.0863L3.02061 15.1976Z" fill="#FFE681"/>
</g>
<defs>
<clipPath id="clip0_95_328">
<rect width="24" height="24" fill="white"/>
</clipPath>
</defs>
</svg>
