<svg width="24" height="24" viewBox="0 0 24 24" fill="none" xmlns="http://www.w3.org/2000/svg">
<g clip-path="url(#clip0_77_923)">
<path d="M23.6743 0.895313C23.6442 0.755038 23.5742 0.626448 23.4728 0.524998C23.3713 0.423549 23.2427 0.353557 23.1024 0.323438C21.5931 0 20.4123 0 19.2357 0C14.3982 0 11.4967 2.5875 9.33151 6H4.44713C4.02999 6.00035 3.62116 6.11666 3.2663 6.33593C2.91145 6.55521 2.62453 6.86881 2.4376 7.24172L0.121036 11.873C0.0354856 12.0445 -0.00480346 12.2351 0.00399257 12.4266C0.0127886 12.6181 0.0703778 12.8042 0.171295 12.9672C0.272212 13.1302 0.413108 13.2647 0.580612 13.358C0.748116 13.4512 0.93667 13.5001 1.12838 13.5H5.9926L4.93932 14.5533C4.65808 14.8346 4.50009 15.2161 4.50009 15.6138C4.50009 16.0116 4.65808 16.3931 4.93932 16.6744L7.32526 19.0608C7.46455 19.2001 7.62992 19.3106 7.81193 19.386C7.99394 19.4614 8.18902 19.5002 8.38604 19.5002C8.58305 19.5002 8.77813 19.4614 8.96014 19.386C9.14215 19.3106 9.30753 19.2001 9.44682 19.0608L10.5001 18.0075V22.875C10.5 23.0666 10.5489 23.2551 10.6422 23.4226C10.7354 23.59 10.8698 23.7309 11.0328 23.8318C11.1957 23.9327 11.3817 23.9903 11.5731 23.9991C11.7646 24.008 11.9551 23.9678 12.1267 23.8823L16.7532 21.5672C17.1267 21.3806 17.4409 21.0936 17.6603 20.7384C17.8797 20.3831 17.9958 19.9738 17.9954 19.5563V14.662C21.3981 12.4917 23.9954 9.58078 23.9954 4.76719C24.0001 3.58594 24.0001 2.40469 23.6743 0.895313ZM18.0001 7.875C17.6293 7.875 17.2667 7.76503 16.9584 7.55901C16.6501 7.35298 16.4097 7.06014 16.2678 6.71753C16.1259 6.37492 16.0888 5.99792 16.1611 5.63421C16.2335 5.27049 16.4121 4.9364 16.6743 4.67418C16.9365 4.41195 17.2706 4.23337 17.6343 4.16103C17.998 4.08868 18.375 4.12581 18.7176 4.26773C19.0602 4.40964 19.3531 4.64996 19.5591 4.95831C19.7651 5.26665 19.8751 5.62916 19.8751 6C19.8751 6.49728 19.6776 6.97419 19.3259 7.32583C18.9743 7.67746 18.4974 7.875 18.0001 7.875Z" fill="#FFE681"/>
</g>
<defs>
<clipPath id="clip0_77_923">
<rect width="24" height="24" fill="white"/>
</clipPath>
</defs>
</svg>
