<svg width="24" height="24" viewBox="0 0 24 24" fill="none" xmlns="http://www.w3.org/2000/svg">
<path d="M18.6231 16.374L21.2486 13.7485C21.8823 13.1148 21.6214 12.0321 20.7672 11.7576L19.2 11.2538V6.00002C19.2 5.33729 18.6627 4.80002 18 4.80002H15.6V3.30002C15.6 2.80296 15.1971 2.40002 14.7 2.40002H9.3C8.80294 2.40002 8.4 2.80296 8.4 3.30002V4.80002H6C5.33726 4.80002 4.8 5.33729 4.8 6.00002V11.2538L3.2328 11.7576C2.37956 12.0318 2.11703 13.1141 2.75145 13.7485L5.3769 16.374C4.71855 18.0108 3.20951 19.2 0.9 19.2C0.402938 19.2 0 19.603 0 20.1V20.7C0 21.1971 0.402938 21.6 0.9 21.6C3.18836 21.6 4.93121 20.8272 6.27218 19.3727C6.81289 20.6787 8.10079 21.6 9.6 21.6H14.4C15.8992 21.6 17.1871 20.6787 17.7278 19.3727C19.0686 20.8269 20.8113 21.6 23.1 21.6C23.5971 21.6 24 21.1971 24 20.7V20.1C24 19.603 23.5971 19.2 23.1 19.2C20.8194 19.2 19.2922 18.0375 18.6231 16.374ZM7.2 7.20002H16.8V10.4824L12.3672 9.05762C12.1284 8.98086 11.8716 8.98086 11.6328 9.05762L7.2 10.4824V7.20002Z" fill="#FFE681"/>
</svg>
