<svg width="24" height="24" viewBox="0 0 24 24" fill="none" xmlns="http://www.w3.org/2000/svg">
<g clip-path="url(#clip0_71_406)">
<path d="M16.4974 15.0293L11.9999 19.5012L7.50251 15.0293C4.1318 15.1746 1.43994 17.9168 1.43994 21.3012V21.7512C1.43994 22.9934 2.45351 24.0012 3.7028 24.0012H20.2971C21.5464 24.0012 22.5599 22.9934 22.5599 21.7512V21.3012C22.5599 17.9168 19.8681 15.1746 16.4974 15.0293ZM2.08108 3.7418L2.3828 3.81211V6.54961C2.0528 6.74648 1.81708 7.08867 1.81708 7.50117C1.81708 7.89492 2.03394 8.22305 2.34037 8.42461L1.60494 11.3449C1.5248 11.6684 1.70394 12.0012 1.96323 12.0012H3.9338C4.19308 12.0012 4.37223 11.6684 4.29208 11.3449L3.55666 8.42461C3.86308 8.22305 4.07994 7.89492 4.07994 7.50117C4.07994 7.08867 3.84423 6.74648 3.51423 6.54961V4.08398L6.62566 4.8293C6.22023 5.63555 5.96566 6.53555 5.96566 7.50117C5.96566 10.8152 8.66694 13.5012 11.9999 13.5012C15.3329 13.5012 18.0342 10.8152 18.0342 7.50117C18.0342 6.53555 17.7844 5.63555 17.3742 4.8293L21.9141 3.7418C22.7721 3.53555 22.7721 2.47148 21.9141 2.26523L12.9381 0.108984C12.3252 -0.0363281 11.6794 -0.0363281 11.0665 0.108984L2.08108 2.26055C1.2278 2.4668 1.2278 3.53555 2.08108 3.7418Z" fill="#FFE681"/>
</g>
<defs>
<clipPath id="clip0_71_406">
<rect width="24" height="24" fill="white"/>
</clipPath>
</defs>
</svg>
