<svg width="24" height="24" viewBox="0 0 24 24" fill="none" xmlns="http://www.w3.org/2000/svg">
<path d="M23.4208 17.3292C22.525 17.2292 21.6667 16.8917 21.0083 16.375C20.4208 15.9125 19.5833 15.9042 19 16.375C17.4208 17.6417 14.5333 17.6417 12.9292 16.3125C12.3667 15.8458 11.5542 15.9333 10.9833 16.3875C9.4 17.6417 6.52917 17.6375 4.93333 16.3167C4.37083 15.85 3.54583 15.9458 2.97083 16.4C2.325 16.9083 1.47083 17.2375 0.566667 17.3333C0.2375 17.3667 0 17.6583 0 17.9875V19.3292C0 19.7083 0.316667 20.0292 0.695833 19.9958C1.89583 19.8917 3.03333 19.5208 4.00417 18.9167C6.35833 20.3583 9.7125 20.3375 12.0042 18.9167C14.3583 20.3583 17.7125 20.3375 20.0042 18.9167C20.975 19.5083 22.125 19.8875 23.3 19.9917C23.6792 20.025 23.9958 19.7042 23.9958 19.325V18.0083C24 17.675 23.7583 17.3667 23.4208 17.3292ZM23.4208 11.3292C22.525 11.2292 21.6667 10.8917 21.0083 10.375C20.4208 9.9125 19.5833 9.90417 19 10.375C17.4208 11.6417 14.5333 11.6417 12.9292 10.3125C12.3667 9.84583 11.5542 9.93333 10.9833 10.3875C9.4 11.6417 6.52917 11.6375 4.93333 10.3167C4.37083 9.85 3.54583 9.94583 2.97083 10.4C2.325 10.9083 1.47083 11.2375 0.566667 11.3333C0.2375 11.3667 0 11.6583 0 11.9875V13.3292C0 13.7083 0.316667 14.0292 0.695833 13.9958C1.89583 13.8917 3.03333 13.5208 4.00417 12.9167C6.35833 14.3583 9.7125 14.3375 12.0042 12.9167C14.3583 14.3583 17.7125 14.3375 20.0042 12.9167C20.975 13.5083 22.125 13.8875 23.3 13.9917C23.6792 14.025 23.9958 13.7042 23.9958 13.325V12.0083C24 11.675 23.7583 11.3667 23.4208 11.3292ZM23.4208 5.32917C22.525 5.225 21.6667 4.89167 21.0083 4.375C20.4208 3.9125 19.5833 3.90417 19 4.375C17.4208 5.64167 14.5333 5.64167 12.9292 4.3125C12.3667 3.84583 11.5542 3.93333 10.9833 4.3875C9.4 5.64167 6.52917 5.6375 4.93333 4.31667C4.37083 3.85 3.54583 3.94583 2.97083 4.4C2.325 4.90833 1.47083 5.2375 0.566667 5.33333C0.2375 5.36667 0 5.65833 0 5.9875V7.32917C0 7.70833 0.316667 8.02917 0.695833 7.99583C1.89583 7.89167 3.03333 7.52083 4.00417 6.91667C6.35833 8.35833 9.7125 8.3375 12.0042 6.91667C14.3583 8.35833 17.7125 8.3375 20.0042 6.91667C20.975 7.50833 22.125 7.8875 23.3 7.99167C23.6792 8.025 23.9958 7.70417 23.9958 7.325V6.00833C24 5.675 23.7583 5.36667 23.4208 5.32917Z" fill="#FFE681"/>
</svg>
